<svg width="45" height="45" viewBox="0 0 45 45" fill="none" xmlns="http://www.w3.org/2000/svg">
  <rect width="45" height="45" rx="22.5" fill="#fff"/>
  <path d="M0 22.5C0 10.074 10.074 0 22.5 0S45 10.074 45 22.5 34.926 45 22.5 45 0 34.926 0 22.5z" fill="url(#paint0_radial)"/>
  <g filter="url(#filter0_di)" fill="#fff">
    <path d="M18.373 26.042l1.455-.336c.03-.007.081-.019.143-.039a1.605 1.605 0 001.147-1.91l-.006-.026a1.6 1.6 0 00-.247-.54 2.027 2.027 0 00-.595-.51 5.503 5.503 0 00-.844-.39l-1.596-.582c-.895-.332-1.79-.656-2.695-.972-.586-.209-1.082-.391-1.514-.525-.081-.025-.171-.05-.244-.075-.522-.16-.889-.226-1.199-.228a1.427 1.427 0 00-.604.11c-.2.086-.378.213-.525.372a3.22 3.22 0 00-.206.26 3.077 3.077 0 00-.306.61 8.259 8.259 0 00-.435 2.715c.006.835.029 1.905.489 2.631.11.187.259.348.436.473.327.226.657.255 1.001.28.514.037 1.012-.09 1.508-.204l4.833-1.115h.004zm16.23-7.721a8.261 8.261 0 00-1.581-2.25 2.422 2.422 0 00-.269-.23 3.135 3.135 0 00-.273-.183 3.117 3.117 0 00-.3-.144 1.542 1.542 0 00-.634-.104c-.207.011-.41.068-.592.166-.277.138-.578.36-.977.73-.055.055-.124.117-.186.175-.33.31-.696.69-1.132 1.135-.673.68-1.336 1.364-1.995 2.056l-1.18 1.222a5.494 5.494 0 00-.588.721c-.149.217-.254.46-.31.718a1.599 1.599 0 00.02.62 1.603 1.603 0 001.868 1.215c.065-.01.115-.02.146-.028l6.29-1.453c.496-.114.999-.219 1.444-.477.299-.173.583-.345.778-.69.104-.191.166-.4.184-.617.096-.856-.352-1.83-.713-2.582zm-11.257 2.646c.455-.572.454-1.424.494-2.121.136-2.33.28-4.659.392-6.989.043-.882.138-1.753.085-2.642-.044-.734-.05-1.576-.514-2.178-.819-1.062-2.564-.975-3.755-.81-.364.05-.73.118-1.092.205a14.59 14.59 0 00-1.072.295c-1.143.374-2.749 1.06-3.02 2.375-.153.744.21 1.505.493 2.183.342.823.81 1.564 1.235 2.338 1.126 2.044 2.273 4.075 3.416 6.11.341.606.714 1.375 1.374 1.69.044.019.088.036.133.05a1.598 1.598 0 001.727-.398 1.52 1.52 0 00.104-.108zm-.547 6.233a1.456 1.456 0 00-1.62-.545c-.07.023-.137.051-.202.084-.1.05-.195.11-.285.178-.262.194-.483.446-.684.699-.05.064-.097.15-.158.205l-1.011 1.39c-.573.78-1.138 1.56-1.699 2.354-.365.512-.681.944-.931 1.327-.048.072-.097.152-.142.216-.3.464-.469.802-.556 1.103-.065.2-.085.412-.06.62.028.218.101.427.216.615.06.094.126.184.196.272a3.06 3.06 0 00.508.467c.699.486 1.464.834 2.268 1.104a8.03 8.03 0 002.07.395c.119.006.239.004.358-.008.111-.01.221-.025.33-.046.11-.025.217-.057.322-.094a1.57 1.57 0 00.55-.35c.148-.148.262-.327.334-.523.117-.292.194-.661.244-1.21.004-.079.015-.172.023-.258.04-.456.058-.99.086-1.62.05-.967.088-1.93.118-2.896l.064-1.718c.014-.395.002-.834-.108-1.227a1.837 1.837 0 00-.231-.533zm11.425 2.685c-.211-.231-.51-.462-.983-.747-.068-.038-.148-.088-.222-.133-.393-.236-.866-.484-1.42-.784-.849-.466-1.7-.92-2.557-1.37l-1.517-.803c-.078-.023-.158-.08-.232-.116-.292-.139-.6-.269-.921-.328a1.941 1.941 0 00-.335-.035c-.073 0-.145.004-.217.013a1.456 1.456 0 00-1.214 1.201c-.023.193-.016.387.021.578.075.403.255.801.441 1.15l.81 1.516a151.9 151.9 0 001.376 2.552c.302.553.553 1.026.788 1.418.045.073.095.153.134.221.286.471.516.768.75.98.15.146.331.257.53.325.208.07.428.094.647.072.111-.013.221-.032.33-.057a3.18 3.18 0 00.318-.103 2.47 2.47 0 00.325-.15 8.022 8.022 0 001.687-1.262c.605-.595 1.14-1.244 1.555-1.987.058-.105.108-.214.15-.326.039-.104.073-.21.101-.317.025-.11.043-.22.056-.33a1.563 1.563 0 00-.074-.646 1.438 1.438 0 00-.327-.532z"/>
  </g>
  <defs>
    <radialGradient id="paint0_radial" cx="0" cy="0" r="1" gradientUnits="userSpaceOnUse" gradientTransform="rotate(90 13.87 8.63) scale(53.7353)">
      <stop stop-color="#FF78A1"/>
      <stop offset=".513" stop-color="#FE375C"/>
      <stop offset="1" stop-color="red"/>
    </radialGradient>
    <filter id="filter0_di" x="7.984" y="4.539" width="29.463" height="35.795" filterUnits="userSpaceOnUse" color-interpolation-filters="sRGB">
      <feFlood flood-opacity="0" result="BackgroundImageFix"/>
      <feColorMatrix in="SourceAlpha" values="0 0 0 0 0 0 0 0 0 0 0 0 0 0 0 0 0 0 127 0" result="hardAlpha"/>
      <feOffset dy=".529"/>
      <feGaussianBlur stdDeviation="1.059"/>
      <feColorMatrix values="0 0 0 0 0.804167 0 0 0 0 0 0 0 0 0 0 0 0 0 0.55 0"/>
      <feBlend in2="BackgroundImageFix" result="effect1_dropShadow"/>
      <feBlend in="SourceGraphic" in2="effect1_dropShadow" result="shape"/>
      <feColorMatrix in="SourceAlpha" values="0 0 0 0 0 0 0 0 0 0 0 0 0 0 0 0 0 0 127 0" result="hardAlpha"/>
      <feOffset dy=".688"/>
      <feGaussianBlur stdDeviation=".662"/>
      <feComposite in2="hardAlpha" operator="arithmetic" k2="-1" k3="1"/>
      <feColorMatrix values="0 0 0 0 1 0 0 0 0 0 0 0 0 0 0.18 0 0 0 0.25 0"/>
      <feBlend in2="shape" result="effect2_innerShadow"/>
    </filter>
  </defs>
</svg>
