<svg width="40" height="40" xmlns="http://www.w3.org/2000/svg" xmlns:xlink="http://www.w3.org/1999/xlink" overflow="hidden"><defs><clipPath id="clip0"><rect x="620" y="340" width="40" height="40"/></clipPath></defs><g clip-path="url(#clip0)" transform="translate(-620 -340)"><path d="M634.53 361.5C634.508 366.018 637.839 369.853 642.317 370.462 646.794 371.071 651.029 368.266 652.214 363.906 653.4 359.546 651.169 354.982 647 353.24L647 358.35C647.003 359.319 646.619 360.249 645.934 360.934 645.249 361.619 644.319 362.003 643.35 362L639 362 639 353.75C636.241 355.357 634.539 358.307 634.53 361.5ZM639 351.51 639 347.72C637.571 348.176 636.222 348.851 635 349.72L635 354.55C636.081 353.242 637.45 352.201 639 351.51Z" fill="#FF0000" fill-rule="nonzero" fill-opacity="1"/><path d="M647 347.44 647 351.11C651.263 352.534 654.231 356.408 654.496 360.895 654.761 365.381 652.27 369.578 648.204 371.494 644.139 373.41 639.317 372.66 636.025 369.599 632.733 366.539 631.635 361.784 633.25 357.59 632.773 357.855 632.236 357.996 631.69 358L629.43 358C628.01 363.691 630.158 369.677 634.873 373.166 639.588 376.656 645.941 376.961 650.968 373.939 655.995 370.917 658.707 365.164 657.839 359.363 656.97 353.563 652.692 348.856 647 347.44Z" fill="#FF0000" fill-rule="nonzero" fill-opacity="1"/><path d="M643.5 365 638.5 365C638.224 365 638 365.224 638 365.5L638 375C638 376.657 639.343 378 641 378 642.657 378 644 376.657 644 375L644 365.5C644 365.224 643.776 365 643.5 365ZM631.5 361 626.5 361C626.224 361 626 361.224 626 361.5L626 375C626 376.657 627.343 378 629 378 630.657 378 632 376.657 632 375L632 361.5C632 361.224 631.776 361 631.5 361Z" fill="#FF0000" fill-rule="nonzero" fill-opacity="1"/><path d="M643 363 639 363C638.448 363 638 362.552 638 362L638 346.77C638 344.009 640.239 341.77 643 341.77 645.761 341.77 648 344.009 648 346.77L648 358C648 359.326 647.473 360.598 646.536 361.535 645.598 362.473 644.326 363 643 363ZM640 361 643 361C644.657 361 646 359.657 646 358L646 346.77C646 345.113 644.657 343.77 643 343.77 641.343 343.77 640 345.113 640 346.77L640 361ZM635 342 623 342C622.448 342 622 342.448 622 343L622 355C622 357.209 623.791 359 626 359L632 359C634.209 359 636 357.209 636 355L636 343C636 342.448 635.552 342 635 342ZM634 355C634 356.105 633.105 357 632 357L626 357C624.895 357 624 356.105 624 355L624 344 626 344 626 352C626 352.552 626.448 353 627 353 627.552 353 628 352.552 628 352L628 344 630 344 630 352C630 352.552 630.448 353 631 353 631.552 353 632 352.552 632 352L632 344 634 344 634 355Z" fill="#FF0000" fill-rule="nonzero" fill-opacity="1"/></g></svg>